PathFileType	4	(X/Y/Z)	D:\Long Term Storage\D'Arcy Smith\Coord16.trc
DataRate	CameraRate	NumFrames	NumMarkers	Units	OrigDataRate	OrigDataStartFrame	OrigNumFrames
120.00	120.00	      134	4	mm	120.00	3028	      4844
Frame#	Time	M1			M2			M3			M4			
		X1	Y1	Z1	X2	Y2	Z2	X3	Y3	Z3	X4	Y4	Z4	

3028	25.225	1038.96460	263.03717	365.94366	1581.72644	436.53546	105.64758							
3029	25.233	1037.77356	261.05096	378.66171	1582.34338	439.87283	102.25385							
3030	25.242	1037.12573	259.95612	391.69058	1582.48730	442.49686	99.43426							
3031	25.250	1036.62427	259.24683	404.14337	1583.47803	444.78918	97.38091							
3032	25.258	1036.30103	258.92761	416.71609	1584.35242	446.28314	95.58497							
3033	25.267	1036.16797	259.25543	428.96225	1584.64270	446.71347	94.29571							
3034	25.275	1036.22424	259.84158	441.13376	1585.89807	446.57367	93.96973							
3035	25.283	1036.27478	261.26138	453.03195	1586.73462	446.17892	93.62357							
3036	25.292	1036.53186	262.93466	464.71106	1587.80005	444.73706	93.95018							
3037	25.300	1036.93762	265.32791	476.11130	1588.81604	442.53238	95.00450							
3038	25.308	1037.40271	267.66272	486.55362	1589.71252	439.62872	96.57374							
3039	25.317	1038.53467	271.01010	496.37100	1590.44214	436.22699	98.46572							
3040	25.325	1039.45276	275.19333	505.17047	1591.30750	432.00668	101.14638							
3041	25.333	1040.72388	279.05502	513.46893	1593.30200	427.14706	104.31826							
3042	25.342	1041.76843	283.27924	522.07043	1592.89380	421.42316	107.71247							
3043	25.350	1042.80676	287.68515	530.22522	1593.65247	415.51843	111.92945							
3044	25.358	1043.79065	292.11053	537.23108	1594.66943	409.49179	116.60616							
3045	25.367	1044.70374	297.12848	544.66809	1595.22559	402.24222	121.79642							
3046	25.375	1045.98230	301.20651	550.54291	1595.79431	395.02151	127.35654							
3047	25.383	1046.63782	305.83960	559.93561	1596.34644	387.27774	133.74271							
3048	25.392	1048.53589	310.31033	563.52295	1596.83923	379.24469	140.58772							
3049	25.400	1049.32300	314.78146	567.99585	1597.13855	370.82916	148.15030							
3050	25.408	1050.26917	318.84225	572.13470	1597.45337	362.30713	156.26895							
3051	25.417	1051.26880	322.81375	573.96667	1597.51685	353.70160	165.09111							
3052	25.425	1051.53308	326.58472	578.45074	1598.43176	344.95184	174.80515							
3053	25.433	1052.08801	329.79208	580.42914	1598.28467	336.19174	184.89540							
3054	25.442	1052.36609	332.88162	581.53503	1598.46753	327.45428	196.06261							
3055	25.450	1052.54626	335.52008	582.75500	1599.97754	318.68024	207.93239							
3056	25.458	1052.66785	337.86548	583.07635	1598.86768	310.02563	220.22151							
3057	25.467	1052.45032	339.83261	582.99115	1599.76184	301.84894	233.69852							
3058	25.475	1052.10437	341.33389	581.98102	1599.85266	294.18433	247.86732							
3059	25.483	1051.94177	342.44513	579.09955	1599.36462	287.03149	262.79782							
3060	25.492	1051.00208	343.23199	575.60510	1598.97559	280.55283	277.95889							
3061	25.500	1050.60120	343.75916	573.76117	1598.55823	274.74518	293.75113							
3062	25.508	1049.55005	343.69025	568.90112	1598.06335	269.59494	310.07281							
3063	25.517	1048.79724	343.51059	565.84930	1597.73022	264.70782	326.75348							
3064	25.525	1048.29773	343.48792	560.04797	1596.66162	261.70773	343.52185							
3065	25.533	1046.70374	342.04037	553.89966	1596.85815	258.61249	360.53448							
3066	25.542	1045.93359	341.34268	546.15558	1595.91040	256.93277	377.77896							
3067	25.550	1044.86804	340.18018	539.22278	1594.99402	256.01288	394.64099							
3068	25.558	1043.82507	339.05859	531.75214	1595.14319	254.83704	410.97839							
3069	25.567	1043.03259	337.69266	524.86060	1595.21582	255.29289	427.94656							
3070	25.575	1041.85779	336.34174	515.86682	1595.44519	256.63177	444.17322							
3071	25.583	1040.87329	334.89429	506.33640	1595.53577	258.44431	459.71719							
3072	25.592	1039.66284	334.20239	494.06793	1595.94946	260.59280	475.22842							
3073	25.600	1038.61951	332.30521	486.23813	1595.66699	263.39557	488.88202							
3074	25.608	1037.98840	331.25415	473.90259	1596.74377	267.47696	503.12500							
3075	25.617	1037.79199	330.29089	463.91571	1597.36865	271.53497	515.73822							
3076	25.625	1037.00903	329.37488	451.55118	1598.25488	275.83774	528.04675							
3077	25.633	1036.40906	328.88916	438.58630	1599.34912	280.29129	539.24817							
3078	25.642	1036.19897	328.53583	425.94693	1600.28735	284.73648	549.83392							
3079	25.650	1036.01550	328.50464	413.43106	1601.53613	289.10379	559.29987							
3080	25.658	1036.37622	328.63437	401.23257	1602.75427	293.47742	568.02625							
3081	25.667	1036.51855	328.90460	387.64508	1603.96155	297.75562	575.81213							
3082	25.675	1037.26343	329.80396	375.46725	1605.26379	302.06485	582.38690							
3083	25.683	1037.40735	330.88992	361.90720	1606.45032	305.99664	588.29620							
3084	25.692	1038.02893	331.86371	348.17975	1607.58850	309.45895	593.03882							
3085	25.700	1039.36487	333.34799	336.35294	1608.86255	312.19238	596.77289							
3086	25.708	1040.16638	335.99460	320.45056	1610.17493	315.28027	599.34418							
3087	25.717	1040.99402	337.96576	307.35760	1611.49231	317.27057	601.29846							
3088	25.725	1042.62146	340.59833	294.31186	1612.62000	318.68564	602.27777							
3089	25.733	1043.85022	342.95776	281.90622	1613.87439	319.53345	602.36517							
3090	25.742	1045.22021	345.48569	269.73224	1615.11877	319.89227	601.44196							
3091	25.750	1046.81995	348.17596	257.79840	1616.30212	319.71094	599.79156							
3092	25.758	1048.48108	350.87738	246.36891	1617.30542	319.06332	597.14539							
3093	25.767	1050.31848	353.89633	235.18288	1618.04907	318.35046	594.24921							
3094	25.775	1052.34546	356.63181	225.15976	1618.90027	316.33835	589.18585							
3095	25.783	1054.41846	359.67267	214.97644	1619.53857	313.90213	583.99762							
3096	25.792	1056.33936	362.51230	205.73505	1620.20850	312.10092	578.17975							
3097	25.800	1058.17114	365.09152	196.57997	1620.72620	309.63852	571.48438							
3098	25.808	1060.30835	367.88174	188.02060	1621.09192	306.95627	563.92242							
3099	25.817	1061.99902	370.41425	180.29254	1621.33435	304.08365	555.51776							
3100	25.825	1063.78833	372.77808	173.40317	1621.20593	301.20477	546.55316							
3101	25.833	1065.49377	374.68387	167.12238	1621.12134	297.88022	536.46667							
3102	25.842	1067.14417	376.46362	161.64970	1621.01416	295.19150	525.88995							
3103	25.850	1069.34094	377.88464	156.94525	1620.90100	292.59222	515.35681							
3104	25.858	1070.43445	378.70688	153.35777	1620.01807	290.62238	503.94232							
3105	25.867	1071.99414	379.25400	150.47038	1619.25159	288.39941	491.15799							
3106	25.875	1073.13171	379.27231	148.61687	1618.58008	286.73941	479.23599							
3107	25.883	1073.61475	378.57892	147.86079	1617.68896	285.14325	464.70825							
3108	25.892	1074.16089	377.42462	147.87215	1616.75598	284.15781	451.02884							
3109	25.900	1074.62891	375.83972	148.77899	1615.65845	283.54840	436.88870							
3110	25.908	1074.82654	373.61630	150.56721	1614.25330	283.30069	422.03439							
3111	25.917	1075.39392	371.11902	152.86911	1612.83435	283.99661	406.45572							
3112	25.925	1075.00500	367.82053	156.27292	1611.81653	285.07288	392.17300							
3113	25.933	1074.45410	364.00076	160.66862	1611.03845	285.90771	376.58728							
3114	25.942	1074.38293	359.97107	165.48352	1608.49792	289.17673	360.59131							
3115	25.950	1073.28040	355.19577	171.30547	1607.42798	292.33020	346.03491							
3116	25.958	1072.98975	350.37408	177.61444	1605.42212	295.92581	331.01190							
3117	25.967	1072.19287	345.18961	184.53154	1603.52161	300.03979	315.27783							
3118	25.975	1071.03271	339.74039	192.48212	1601.87488	304.84576	300.47418							
3119	25.983	1070.02917	334.07556	200.78131	1600.82837	310.39642	285.65100							
3120	25.992	1068.12927	328.14145	209.96960	1599.74707	315.84216	271.84485							
3121	26.000	1067.20972	322.62915	219.26335	1598.28674	322.17346	257.24036							
3122	26.008	1066.95007	316.97552	228.89452	1596.73816	329.23743	243.68396							
3123	26.017	1065.93140	311.34302	239.00513	1595.73096	336.43225	230.38634							
3124	26.025	1064.74170	305.60312	250.24014	1594.67432	344.09747	217.66599							
3125	26.033	1063.67505	300.18228	261.58890	1593.64282	351.87140	205.57137							
3126	26.042	1062.62561	294.93069	273.09335	1592.68042	359.90604	194.11275							
3127	26.050	1061.49805	289.63065	285.79019	1592.08508	367.77774	182.85425							
3128	26.058	1060.46790	285.00436	298.30133	1591.48328	376.23068	172.66505							
3129	26.067	1059.37451	280.07648	311.17242	1590.77649	384.48953	162.89671							
3130	26.075	1058.50476	276.63559	323.36395	1590.43347	392.70715	153.71147							
3131	26.083	1056.82898	273.11496	338.52725	1590.04541	400.64621	145.02269							
3132	26.092	1056.05774	269.91797	351.51910	1589.85510	408.41913	137.07721							
3133	26.100	1055.01721	266.72659	366.27267	1589.75574	416.03635	129.71240							
3134	26.108	1052.64233	263.30377	382.60611	1589.58862	423.17578	123.01434							
3135	26.117	1051.93982	261.97650	395.39819	1590.15857	430.43677	116.84098							
3136	26.125	1051.40723	260.73605	409.09720	1590.43530	436.99704	111.31705							
3137	26.133	1050.62695	260.41910	422.40610	1591.00464	443.18683	106.45757							
3138	26.142	1049.93213	260.34555	435.37057	1591.54199	449.04712	102.06721							
3139	26.150	1049.23669	260.90405	448.44592	1592.15234	454.23776	98.19888							
3140	26.158	1048.64819	262.13312	461.14331	1592.83423	458.88278	94.89821							
3141	26.167	1048.17700	263.77344	473.28461	1593.63086	463.05835	92.28716							
3142	26.175	1047.54065	265.86667	485.05154	1594.45947	466.77240	90.05936							
3143	26.183	1047.07275	268.52100	496.52481	1595.26465	469.56754	88.54811							
3144	26.192	1046.48083	272.14343	506.07986	1596.25464	471.97134	87.16224							
3145	26.200	1046.14453	275.50204	515.64484	1597.14160	473.64099	86.25684							
3146	26.208	1045.62769	279.12781	525.30298	1598.16748	474.76157	85.90310							
3147	26.217	1044.97144	283.07080	533.55829	1598.98022	475.04141	85.85698							
3148	26.225	1044.36609	287.63138	542.32281	1599.90662	474.79800	86.23934							
3149	26.233	1043.74854	291.94083	549.53522	1600.78149	473.93076	87.00905							
3150	26.242	1043.96375	296.15512	555.42694	1601.69287	472.35629	88.14389							
3151	26.250	1042.93188	300.04697	563.76941	1602.38513	470.24344	89.36853							
3152	26.258	1041.50317	303.86530	570.14899	1602.95728	467.48810	91.06872							
3153	26.267	1041.61572	307.74603	573.27496	1603.46436	464.25055	93.15271							
3154	26.275	1040.45410	311.33041	576.68811	1603.79980	460.05469	95.38492							
3155	26.283	1038.69995	314.35571	580.98047	1604.36487	455.77182	98.07932							
3156	26.292	1038.47156	317.12292	581.51971	1604.67310	450.80038	101.26438							
3157	26.300	1037.15576	319.87759	583.14276	1604.90735	444.96002	104.59081							
3158	26.308	1034.99475	321.44547	585.15857	1605.29736	439.12042	108.44408							
3159	26.317	1034.47107	323.23242	582.89380	1605.01953	432.27780	112.58577							
3160	26.325	1032.93542	324.50775	581.98749	1605.16064	425.63437	117.33606							
3161	26.333	1031.31470	325.10492	580.75275	1604.54858	418.18362	122.40114							
